{"title":"Devil.2010.Screener Xvid AC3 LKRG","uid":6001158,"size":846725552,"categoryP":"video","categoryS":"movies","magnet":"?xt=urn:btih:0431382a6f99c3d53aa46212d91c18d0b1f373ee&amp;dn=Devil.2010.Screener+Xvid+AC3+LKRG&amp;tr=udp%3A%2F%2Ftracker.openbittorrent.com%3A80&amp;tr=udp%3A%2F%2Fopen.demonii.com%3A1337&amp;tr=udp%3A%2F%2Ftracker.coppersurfer.tk%3A6969&amp;tr=udp%3A%2F%2Fexodus.desync.com%3A6969","seeders":2,"leechers":0,"uploader":"hiest","files":-1,"time":1291188045,"description":"File Size:807mb\n\nRelease Notes:Source IFLIX video was very dark and dull cleaned it up quite a bit muxed audio to 5.1 AC3 all in all very watchable enjoy\n\nVideo: ID : 0\nFormat : MPEG-4 Visual\nFormat profile : Advanced Simple@L5\nFormat settings, BVOP : Yes\nFormat settings, QPel : No\nFormat settings, GMC : No warppoints\nFormat settings, Matrix : Default (H.263)\nCodec ID : XVID\nCodec ID/Hint : XviD\nDuration : 1h 15mn\nBit rate : 1 090 Kbps\nWidth : 704 pixels\nHeight : 412 pixels\nDisplay aspect ratio : 16:9\nFrame rate : 29.970 fps\nColor space : YUV\nChroma subsampling : 4:2:0\nBit depth : 8 bits\nScan type : Progressive\nBits/(Pixel*Frame) : 0.125\nStream size : 592 MiB (73%)\nWriting library : XviD 1.2.1 (UTC 2008-12-04)\n\nAudio: ID : 1\nFormat : AC-3\nFormat/Info : Audio Coding 3\nMode extension : CM (complete main)\nCodec ID : 2000\nDuration : 1h 15mn\nBit rate mode : Constant\nBit rate : 384 Kbps\nChannel(s) : 6 channels\nChannel positions : Front: L C R, Side: L R, LFE\nSampling rate : 48.0 KHz\nBit depth : 16 bits\nStream size : 209 MiB (26%)\nAlignment : Aligned on interleaves\nInterleave, duration : 32 ms (0.96 video frame)\n\nDuration:1:15\n\nRelease Date:2010\n\nLanguage:English\n\nPlot: A group of people trapped in an elevator realize that the devil is among them.\n\n\n\n\n\n\n================================== &lt;a href=&quot;\nhttp://thepiratebay.se/user/hiest&quot; rel=&quot;nofollow&quot; target=&quot;_NEW&quot;&gt;\nhttp://thepiratebay.se/user/hiest&lt;/a&gt;\n==================================\n\n\n\n\n\n\n\nScreen Shots:\n\n\n\n\n\n","torrent":{"xt":"urn:btih:0431382a6f99c3d53aa46212d91c18d0b1f373ee","amp;dn":"Devil.2010.Screener+Xvid+AC3+LKRG","amp;tr":["udp%3A%2F%2Ftracker.openbittorrent.com%3A80","udp%3A%2F%2Fopen.demonii.com%3A1337","udp%3A%2F%2Ftracker.coppersurfer.tk%3A6969","udp%3A%2F%2Fexodus.desync.com%3A6969"],"infoHash":"0431382a6f99c3d53aa46212d91c18d0b1f373ee","infoHashBuffer":{"type":"Buffer","data":[4,49,56,42,111,153,195,213,58,164,98,18,217,28,24,208,177,243,115,238]},"announce":[],"urlList":[]}}